<mxfile host="app.diagrams.net" agent="Mozilla/5.0 (Windows NT 10.0; Win64; x64) AppleWebKit/537.36 (KHTML, like Gecko) Chrome/137.0.0.0 Safari/537.36" version="27.1.4">
  <diagram name="Page-1" id="0vE7BUAAlVyTHv2f-1Cs">
    <mxGraphModel dx="1042" dy="596" grid="1" gridSize="10" guides="1" tooltips="1" connect="1" arrows="1" fold="1" page="1" pageScale="1" pageWidth="3300" pageHeight="4681" math="0" shadow="0">
      <root>
        <mxCell id="0" />
        <mxCell id="1" parent="0" />
        <mxCell id="68pwguD3pjXFjqmh2ey0-1" value="" style="edgeStyle=orthogonalEdgeStyle;rounded=0;orthogonalLoop=1;jettySize=auto;html=1;dashed=1;" edge="1" parent="1" source="68pwguD3pjXFjqmh2ey0-3" target="68pwguD3pjXFjqmh2ey0-6">
          <mxGeometry relative="1" as="geometry" />
        </mxCell>
        <mxCell id="68pwguD3pjXFjqmh2ey0-2" value="Uses" style="edgeLabel;html=1;align=center;verticalAlign=middle;resizable=0;points=[];" vertex="1" connectable="0" parent="68pwguD3pjXFjqmh2ey0-1">
          <mxGeometry x="0.0139" y="-1" relative="1" as="geometry">
            <mxPoint as="offset" />
          </mxGeometry>
        </mxCell>
        <mxCell id="68pwguD3pjXFjqmh2ey0-3" value="Main" style="html=1;whiteSpace=wrap;" vertex="1" parent="1">
          <mxGeometry x="420" y="150" width="110" height="50" as="geometry" />
        </mxCell>
        <mxCell id="68pwguD3pjXFjqmh2ey0-4" value="" style="edgeStyle=orthogonalEdgeStyle;rounded=0;orthogonalLoop=1;jettySize=auto;html=1;dashed=1;" edge="1" parent="1" source="68pwguD3pjXFjqmh2ey0-6" target="68pwguD3pjXFjqmh2ey0-14">
          <mxGeometry relative="1" as="geometry" />
        </mxCell>
        <mxCell id="68pwguD3pjXFjqmh2ey0-5" value="return" style="edgeLabel;html=1;align=center;verticalAlign=middle;resizable=0;points=[];" vertex="1" connectable="0" parent="68pwguD3pjXFjqmh2ey0-4">
          <mxGeometry x="-0.2107" y="5" relative="1" as="geometry">
            <mxPoint x="-5" y="-1" as="offset" />
          </mxGeometry>
        </mxCell>
        <mxCell id="68pwguD3pjXFjqmh2ey0-6" value="Authenticator" style="html=1;whiteSpace=wrap;" vertex="1" parent="1">
          <mxGeometry x="720" y="150" width="110" height="50" as="geometry" />
        </mxCell>
        <mxCell id="68pwguD3pjXFjqmh2ey0-7" style="edgeStyle=orthogonalEdgeStyle;rounded=0;orthogonalLoop=1;jettySize=auto;html=1;exitX=0.5;exitY=0;exitDx=0;exitDy=0;entryX=0.5;entryY=1;entryDx=0;entryDy=0;dashed=1;" edge="1" parent="1" source="68pwguD3pjXFjqmh2ey0-9" target="68pwguD3pjXFjqmh2ey0-3">
          <mxGeometry relative="1" as="geometry" />
        </mxCell>
        <mxCell id="68pwguD3pjXFjqmh2ey0-8" value="uses&lt;div&gt;(if Authenticator returns AdminAccount)&lt;/div&gt;" style="edgeLabel;html=1;align=center;verticalAlign=middle;resizable=0;points=[];" vertex="1" connectable="0" parent="68pwguD3pjXFjqmh2ey0-7">
          <mxGeometry x="-0.6752" y="-1" relative="1" as="geometry">
            <mxPoint x="-1" y="6" as="offset" />
          </mxGeometry>
        </mxCell>
        <mxCell id="68pwguD3pjXFjqmh2ey0-9" value="AdminMenu" style="html=1;whiteSpace=wrap;" vertex="1" parent="1">
          <mxGeometry x="290" y="340" width="110" height="50" as="geometry" />
        </mxCell>
        <mxCell id="68pwguD3pjXFjqmh2ey0-10" style="edgeStyle=orthogonalEdgeStyle;rounded=0;orthogonalLoop=1;jettySize=auto;html=1;exitX=0.5;exitY=0;exitDx=0;exitDy=0;entryX=0.5;entryY=1;entryDx=0;entryDy=0;dashed=1;" edge="1" parent="1" source="68pwguD3pjXFjqmh2ey0-12" target="68pwguD3pjXFjqmh2ey0-3">
          <mxGeometry relative="1" as="geometry" />
        </mxCell>
        <mxCell id="68pwguD3pjXFjqmh2ey0-11" value="uses&amp;nbsp;&lt;div&gt;(if Authenticator returns CustomerAccount)&lt;/div&gt;" style="edgeLabel;html=1;align=center;verticalAlign=middle;resizable=0;points=[];" vertex="1" connectable="0" parent="68pwguD3pjXFjqmh2ey0-10">
          <mxGeometry x="-0.7152" y="1" relative="1" as="geometry">
            <mxPoint as="offset" />
          </mxGeometry>
        </mxCell>
        <mxCell id="68pwguD3pjXFjqmh2ey0-12" value="CustomerMenu" style="html=1;whiteSpace=wrap;" vertex="1" parent="1">
          <mxGeometry x="550" y="340" width="110" height="50" as="geometry" />
        </mxCell>
        <mxCell id="68pwguD3pjXFjqmh2ey0-13" style="edgeStyle=orthogonalEdgeStyle;rounded=0;orthogonalLoop=1;jettySize=auto;html=1;exitX=0;exitY=0.5;exitDx=0;exitDy=0;entryX=0.5;entryY=1;entryDx=0;entryDy=0;dashed=1;" edge="1" parent="1" source="68pwguD3pjXFjqmh2ey0-14" target="68pwguD3pjXFjqmh2ey0-17">
          <mxGeometry relative="1" as="geometry">
            <mxPoint x="590" y="540" as="targetPoint" />
            <Array as="points">
              <mxPoint x="605" y="575" />
            </Array>
          </mxGeometry>
        </mxCell>
        <mxCell id="68pwguD3pjXFjqmh2ey0-14" value="IAccount" style="html=1;whiteSpace=wrap;" vertex="1" parent="1">
          <mxGeometry x="720" y="550" width="110" height="50" as="geometry" />
        </mxCell>
        <mxCell id="68pwguD3pjXFjqmh2ey0-15" style="edgeStyle=orthogonalEdgeStyle;rounded=0;orthogonalLoop=1;jettySize=auto;html=1;exitX=0;exitY=0.5;exitDx=0;exitDy=0;entryX=0.5;entryY=1;entryDx=0;entryDy=0;dashed=1;" edge="1" parent="1" source="68pwguD3pjXFjqmh2ey0-14" target="68pwguD3pjXFjqmh2ey0-19">
          <mxGeometry relative="1" as="geometry">
            <mxPoint x="755" y="665" as="sourcePoint" />
            <mxPoint x="365" y="540" as="targetPoint" />
          </mxGeometry>
        </mxCell>
        <mxCell id="68pwguD3pjXFjqmh2ey0-16" style="edgeStyle=orthogonalEdgeStyle;rounded=0;orthogonalLoop=1;jettySize=auto;html=1;exitX=0.5;exitY=0;exitDx=0;exitDy=0;entryX=0.5;entryY=1;entryDx=0;entryDy=0;" edge="1" parent="1" source="68pwguD3pjXFjqmh2ey0-17" target="68pwguD3pjXFjqmh2ey0-12">
          <mxGeometry relative="1" as="geometry" />
        </mxCell>
        <mxCell id="68pwguD3pjXFjqmh2ey0-17" value="CustomerAccount" style="html=1;whiteSpace=wrap;" vertex="1" parent="1">
          <mxGeometry x="550" y="470" width="110" height="50" as="geometry" />
        </mxCell>
        <mxCell id="68pwguD3pjXFjqmh2ey0-18" style="edgeStyle=orthogonalEdgeStyle;rounded=0;orthogonalLoop=1;jettySize=auto;html=1;exitX=0.5;exitY=0;exitDx=0;exitDy=0;entryX=0.5;entryY=1;entryDx=0;entryDy=0;" edge="1" parent="1" source="68pwguD3pjXFjqmh2ey0-19" target="68pwguD3pjXFjqmh2ey0-9">
          <mxGeometry relative="1" as="geometry" />
        </mxCell>
        <mxCell id="68pwguD3pjXFjqmh2ey0-19" value="AdminAccount" style="html=1;whiteSpace=wrap;" vertex="1" parent="1">
          <mxGeometry x="290" y="470" width="110" height="50" as="geometry" />
        </mxCell>
      </root>
    </mxGraphModel>
  </diagram>
</mxfile>
